<?xml version="1.0" standalone="no"?><svg xmlns="http://www.w3.org/2000/svg" viewBox="0 0 1440 320"><path fill="#FFFFFF" fill-opacity="1" d="M0,224L24,240C48,256,96,288,144,288C192,288,240,256,288,208C336,160,384,96,432,58.7C480,21,528,11,576,16C624,21,672,43,720,80C768,117,816,171,864,160C912,149,960,75,1008,42.7C1056,11,1104,21,1152,74.7C1200,128,1248,224,1296,250.7C1344,277,1392,235,1416,213.3L1440,192L1440,0L1416,0C1392,0,1344,0,1296,0C1248,0,1200,0,1152,0C1104,0,1056,0,1008,0C960,0,912,0,864,0C816,0,768,0,720,0C672,0,624,0,576,0C528,0,480,0,432,0C384,0,336,0,288,0C240,0,192,0,144,0C96,0,48,0,24,0L0,0Z"></path></svg>